<?xml version="1.0" encoding="UTF-8" standalone="no"?>
<svg
   xmlns:dc="http://purl.org/dc/elements/1.1/"
   xmlns:cc="http://creativecommons.org/ns#"
   xmlns:rdf="http://www.w3.org/1999/02/22-rdf-syntax-ns#"
   xmlns:svg="http://www.w3.org/2000/svg"
   xmlns="http://www.w3.org/2000/svg"
   xmlns:sodipodi="http://sodipodi.sourceforge.net/DTD/sodipodi-0.dtd"
   xmlns:inkscape="http://www.inkscape.org/namespaces/inkscape"
   width="37.723492cm"
   height="44.829391cm"
   viewBox="0 0 570.27198 677.693"
   version="1.1"
   id="svg4"
   sodipodi:docname="github-icon.svg"
   inkscape:version="0.92.1 r15371">
  <metadata
     id="metadata10">
    <rdf:RDF>
      <cc:Work
         rdf:about="">
        <dc:format>image/svg+xml</dc:format>
        <dc:type
           rdf:resource="http://purl.org/dc/dcmitype/StillImage" />
        <dc:title></dc:title>
      </cc:Work>
    </rdf:RDF>
  </metadata>
  <defs
     id="defs8" />
  <sodipodi:namedview
     pagecolor="#ffffff"
     bordercolor="#666666"
     borderopacity="1"
     objecttolerance="10"
     gridtolerance="10"
     guidetolerance="10"
     inkscape:pageopacity="0"
     inkscape:pageshadow="2"
     inkscape:window-width="1366"
     inkscape:window-height="711"
     id="namedview6"
     showgrid="false"
     inkscape:zoom="0.13350176"
     inkscape:cx="-530.06851"
     inkscape:cy="990.12264"
     inkscape:window-x="0"
     inkscape:window-y="0"
     inkscape:window-maximized="1"
     inkscape:current-layer="svg4"
     fit-margin-top="0"
     fit-margin-left="0"
     fit-margin-right="0"
     fit-margin-bottom="0"
     units="cm"
     scale-x="0.29997" />
  <path
     d="m 1.953,421.85 c -2.604,-2.604 -2.604,-5.208 0,-7.812 5.207,-5.208 11.718,-7.161 19.529,-5.859 7.812,1.302 12.369,2.604 13.671,3.906 9.114,3.906 19.205,12.694 30.271,26.366 11.066,13.671 19.855,23.11 26.366,28.318 31.248,26.04 63.146,27.993 95.696,5.859 2.604,-9.114 6.836,-16.926 12.694,-23.437 5.858,-6.51 11.393,-11.066 16.601,-13.671 5.209,-2.604 14.323,-6.51 27.343,-11.718 -42.967,-3.906 -77.795,-11.393 -104.486,-22.46 C 112.947,390.275 91.789,376.279 76.165,359.353 55.333,335.917 42.638,305.32 38.081,267.562 33.523,229.804 36.453,195.301 46.87,164.053 54.682,144.523 65.749,126.947 80.07,111.322 69.654,78.772 71.607,41.665 85.929,0.001 c 41.664,2.604 79.422,16.926 113.274,42.966 65.1,-16.926 132.804,-17.577 203.111,-1.953 9.114,-6.51 23.111,-14.647 41.989,-24.413 C 463.182,6.836 486.944,1.302 515.588,0 c 5.208,14.322 8.789,31.248 10.742,50.778 1.953,19.53 0.977,37.758 -2.929,54.684 29.945,31.248 45.569,72.912 46.871,124.992 0,41.664 -7.16,76.167 -21.482,103.509 -14.322,27.342 -39.711,50.127 -76.167,68.354 -24.738,11.719 -57.288,18.879 -97.65,21.483 18.229,9.114 31.574,18.554 40.037,28.319 8.464,9.765 13.997,25.063 16.602,45.895 v 61.521 l 1.952,59.566 c 3.906,6.511 8.464,12.044 13.672,16.602 5.208,4.557 9.765,7.812 13.671,9.765 3.905,1.953 5.208,4.883 3.905,8.789 -1.302,3.906 -6.51,5.859 -15.623,5.859 -22.135,0 -39.711,-7.812 -52.731,-23.437 -3.906,-6.51 -5.859,-14.321 -5.859,-23.436 v -93.744 c 0,-10.416 -2.604,-17.903 -7.812,-22.46 -5.208,-4.558 -10.416,-7.487 -15.624,-8.789 v 123.039 c 0,22.134 2.604,36.456 7.812,42.966 5.208,6.51 8.463,13.021 9.766,19.53 1.302,1.302 0.325,2.278 -2.93,2.929 -3.254,0.65 -8.788,-0.325 -16.601,-2.929 -16.926,-3.906 -28.644,-12.695 -35.154,-26.366 -6.51,-13.671 -9.765,-28.319 -9.765,-43.943 V 482.393 h -25.389 v 121.086 c 0,15.624 -3.256,30.598 -9.766,44.919 -9.113,18.229 -26.04,27.993 -50.777,29.295 -3.906,-1.302 -5.859,-2.604 -5.859,-3.905 1.302,-1.303 5.208,-7.812 11.718,-19.53 1.302,-2.604 2.93,-7.812 4.883,-15.624 1.954,-7.812 2.93,-16.926 2.93,-27.342 v -123.04 c -5.208,1.302 -10.091,4.231 -14.648,8.789 -4.557,4.558 -6.836,12.044 -6.836,22.46 v 93.744 c 0,9.113 -1.953,16.926 -5.859,23.436 -11.718,15.624 -29.295,23.437 -52.73,23.437 -9.114,0 -14.322,-1.953 -15.624,-5.859 -1.303,-2.604 -0.977,-4.883 0.977,-6.836 1.954,-1.953 4.883,-4.232 8.789,-6.836 3.906,-2.604 6.51,-4.558 7.812,-5.859 5.208,-3.906 9.113,-9.114 11.718,-15.624 3.906,-5.208 4.882,-18.879 2.929,-41.013 -1.953,-22.134 -2.279,-36.456 -0.977,-42.966 -33.853,11.718 -68.355,5.858 -103.51,-17.577 C 69.656,507.132 59.24,492.158 48.824,472.629 41.012,458.306 25.388,441.38 1.953,421.85 Z"
     id="path2"
     inkscape:connector-curvature="0"
     sodipodi:nodetypes="ccccccccccscccccccccsccscccccccccscssccsscccssccscccccscssscscssccscccc"
     style="fill:#ffffff;fill-opacity:1;stroke:none;stroke-opacity:1"
     inkscape:export-xdpi="26.93"
     inkscape:export-ydpi="26.93" />
</svg>
